<svg width="409" height="80" viewBox="0 0 409 80" fill="none" xmlns="http://www.w3.org/2000/svg">
<g clip-path="url(#clip0_6_39)">
<path d="M0 59.0094C0.005881 58.6103 0.0171162 58.2114 0.033709 57.8127C0.0503369 57.4139 0.0723033 57.0156 0.0996081 56.6176C0.126913 56.2195 0.159575 55.8218 0.197591 55.4246C0.235608 55.0272 0.278942 54.6306 0.327601 54.2347C0.376259 53.8384 0.430241 53.443 0.489541 53.0484C0.548736 52.6536 0.613339 52.2597 0.683349 51.867C0.753363 51.4742 0.828451 51.0823 0.908613 50.6913C0.989124 50.3003 1.07489 49.9104 1.16591 49.5218C1.25658 49.1333 1.35267 48.7461 1.45418 48.3603C1.55535 47.9742 1.66177 47.5896 1.77344 47.2066C1.88511 46.8233 2.00185 46.4417 2.12367 46.0618C2.24549 45.6816 2.37256 45.3032 2.50489 44.9265C2.63686 44.5498 2.77391 44.1751 2.91603 43.8022C3.05815 43.4294 3.20518 43.0585 3.35711 42.6895C3.50938 42.3205 3.66656 41.9536 3.82864 41.5888C3.99036 41.224 4.15717 40.8615 4.32905 40.5013C9.27276 29.9665 18.3673 20.6197 29.4509 16.6395C39.603 12.9941 50.7817 14.2706 60.4297 18.8139C60.6319 18.9092 60.8338 19.0059 61.0351 19.104C61.236 19.202 61.4364 19.3014 61.6363 19.4022C61.8358 19.5029 62.0348 19.605 62.2333 19.7084C62.4318 19.8119 62.6294 19.9166 62.8261 20.0228C63.0232 20.1288 63.2195 20.2363 63.4147 20.345C63.6104 20.4538 63.8052 20.5639 63.9992 20.6752C64.1931 20.7866 64.3863 20.8993 64.5789 21.0133C64.7714 21.1272 64.9633 21.2425 65.1544 21.3593C65.3452 21.4758 65.5353 21.5937 65.7247 21.7129C65.914 21.8319 66.1026 21.9522 66.2902 22.0739C66.4778 22.1956 66.6648 22.3185 66.8511 22.4427C67.0367 22.5669 67.2217 22.6925 67.4067 22.8194C67.5904 22.946 67.774 23.0739 67.957 23.2029C68.1394 23.3323 68.3217 23.4628 68.502 23.5943C68.6831 23.7258 68.8627 23.8587 69.0424 23.993C69.2208 24.127 69.3992 24.2622 69.5769 24.3985C69.7539 24.535 69.9303 24.6726 70.1054 24.8115C70.2811 24.9503 70.4549 25.0904 70.6286 25.2317C70.8024 25.373 70.9748 25.5154 71.1459 25.6587C71.3177 25.8025 71.4881 25.9471 71.6579 26.0926C71.8277 26.2385 71.9961 26.3855 72.1639 26.5339C72.3317 26.6818 72.4982 26.831 72.6634 26.9814C72.8292 27.1317 72.9937 27.2832 73.1575 27.4357C73.3207 27.5885 73.4832 27.7422 73.6444 27.8968C73.8063 28.0518 73.9668 28.2076 74.126 28.3643C74.2852 28.5213 74.4438 28.6795 74.601 28.8385C74.7576 28.9977 74.9142 29.1579 75.0694 29.3191C75.224 29.48 75.3779 29.6421 75.5312 29.8055C75.6845 29.9688 75.8358 30.1332 75.9864 30.2986C76.137 30.4637 76.2863 30.63 76.435 30.7976C76.5836 30.9648 76.7309 31.133 76.8769 31.3022C77.0229 31.4715 77.1676 31.6419 77.3116 31.8133C78.6355 33.3914 80.0004 35.0959 80.6921 37.0612C81.0369 38.0413 81.1684 39.1419 80.6716 40.0957C80.2719 40.8627 79.5558 41.3506 78.7445 41.6114C74.854 42.8616 70.6768 40.2221 67.3327 38.5774C63.5917 37.4232 60.3319 35.1463 56.8028 33.5136C49.9115 30.3259 40.8627 28.3459 33.3182 29.8291C31.0992 30.2656 29.0124 31.0719 27.0182 32.1286C26.6758 32.3143 26.3364 32.5051 26 32.7009C25.6633 32.8972 25.3297 33.0983 24.9992 33.3043C24.6691 33.5106 24.3419 33.7219 24.0178 33.938C23.694 34.1542 23.3735 34.3752 23.0564 34.6012C22.7392 34.8271 22.4256 35.058 22.1154 35.2937C21.8052 35.5291 21.4988 35.7694 21.196 36.0145C20.8932 36.2594 20.5942 36.5088 20.2991 36.7627C20.004 37.0166 19.7128 37.275 19.4254 37.5381C21.0841 37.6183 22.5334 38.0774 23.6912 39.3382C24.5235 40.2436 25.0748 41.4325 25.0049 42.6801C24.9409 43.8164 24.3244 44.8479 23.467 45.5708C20.4398 48.1232 15.0981 47.5135 11.3984 48.7155C8.16117 50.2354 4.78114 52.2269 2.56054 55.0799C1.61381 56.297 0.82565 57.7046 0 59.0094Z" fill="#FDC000"/>
<path d="M16.1457 39.0071C21.3415 32.4281 27.8068 28.1906 36.2251 27.0348C43.7801 25.9977 51.596 27.9084 58.0321 31.9318C60.2438 33.3148 62.2496 34.9789 64.3437 36.5266C65.3161 37.2459 66.3708 37.8461 67.3327 38.5774C63.5917 37.4232 60.332 35.1463 56.8028 33.5136C49.9115 30.3259 40.8627 28.3459 33.3182 29.8291C31.0992 30.2656 29.0124 31.0719 27.0182 32.1286C26.6758 32.3143 26.3364 32.5051 26 32.7009C25.6633 32.8972 25.3297 33.0983 24.9992 33.3043C24.6691 33.5106 24.3419 33.7219 24.0178 33.938C23.694 34.1542 23.3735 34.3752 23.0564 34.6012C22.7392 34.8271 22.4256 35.058 22.1154 35.2937C21.8052 35.5291 21.4988 35.7694 21.196 36.0145C20.8932 36.2594 20.5942 36.5088 20.2991 36.7627C20.004 37.0166 19.7128 37.275 19.4254 37.5381C21.0841 37.6183 22.5334 38.0774 23.6912 39.3381C24.5235 40.2436 25.0749 41.4325 25.005 42.6801C24.9409 43.8164 24.3244 44.8479 23.467 45.5708C20.4398 48.1232 15.0981 47.5135 11.3984 48.7155C13.5497 46.6552 19.8727 46.8467 22.4126 43.6417C23.2606 42.5715 23.3184 41.4445 23.1414 40.1539C22.9645 39.9078 22.7823 39.6776 22.5391 39.4929C20.9345 38.2742 17.9814 38.7432 16.1457 39.0071Z" fill="#DAA621"/>
<path d="M98.4091 31.691C101.538 30.6727 105.574 28.198 107.673 25.7201C108.833 24.3487 109.792 22.714 110.791 21.2172C110.637 33.5189 105.278 45.129 96.4939 53.6927C89.0479 60.9526 79.0577 65.8207 68.5153 65.6733C56.5114 65.5054 44.2117 59.5624 35.9368 51.004C33.8885 48.885 29.6525 44.1391 29.7733 41.1812C29.8043 40.4157 30.1388 39.7521 30.7148 39.251C31.839 38.2742 33.4505 37.9966 34.8956 38.132C37.7988 38.4038 41.5831 40.294 44.1666 41.7116C46.3189 42.5594 48.4124 43.6931 50.4996 44.6931C56.7976 47.7108 63.0341 50.2983 70.0876 50.7285C78.3277 51.2316 85.2968 48.0104 91.3508 42.6806C90.4372 42.5536 89.6153 42.3343 88.7995 41.8978C87.5178 41.2106 86.3802 40.0281 85.9825 38.6089C85.7077 37.6294 85.8457 36.6368 86.3657 35.7643C88.5537 32.0866 94.7306 32.5425 98.4091 31.691Z" fill="#0856B4"/>
<path d="M91.3508 42.6806C90.4372 42.5536 89.6153 42.3343 88.7994 41.8978C87.5178 41.2105 86.3802 40.028 85.9825 38.6089C85.7077 37.6294 85.8457 36.6368 86.3657 35.7643C88.5537 32.0866 94.7306 32.5425 98.409 31.691C98.3615 31.7293 98.3152 31.7686 98.2664 31.8059C97.6586 32.2681 96.6504 32.5084 95.9191 32.7487C93.122 33.6684 88.1223 34.9516 87.5033 38.376C87.4015 38.9394 87.494 39.4562 87.8501 39.9121C88.551 40.8082 89.8498 41.2253 90.9425 41.3255C92.2618 41.4456 93.488 41.1817 94.7531 40.8527C91.8952 46.1379 85.1243 50.2196 79.501 51.9084C79.2513 51.9843 79.0009 52.0571 78.7492 52.1267C78.4981 52.1962 78.2458 52.2627 77.9934 52.326C77.7404 52.3897 77.4867 52.45 77.2317 52.507C76.9774 52.564 76.7223 52.6179 76.4667 52.6686C76.211 52.7197 75.9547 52.7674 75.6977 52.8118C75.4407 52.8562 75.1831 52.8975 74.9254 52.9356C74.6671 52.9738 74.4088 53.0086 74.1498 53.0401C73.8909 53.0719 73.6319 53.1004 73.3723 53.1255C73.1126 53.1507 72.853 53.1728 72.5927 53.1917C72.3324 53.2105 72.0721 53.2261 71.8112 53.2383C71.5509 53.2509 71.2906 53.2603 71.0296 53.2662C70.7687 53.2721 70.5077 53.2749 70.2474 53.2746C69.9865 53.2738 69.7255 53.27 69.4653 53.263C69.2043 53.256 68.944 53.2459 68.6837 53.2326C68.4228 53.2193 68.1631 53.2027 67.9028 53.1828C67.6426 53.1628 67.3829 53.1397 67.1233 53.1135C66.8643 53.0872 66.6047 53.0577 66.3457 53.0248C66.0874 52.9923 65.829 52.9564 65.5713 52.9173C65.3133 52.8781 65.056 52.836 64.7994 52.7908C64.5425 52.7454 64.2863 52.6968 64.0307 52.645C63.7752 52.5929 63.5201 52.5378 63.2656 52.4797C63.0115 52.4217 62.7581 52.3605 62.5053 52.2961C62.2526 52.2317 62.0007 52.1643 61.7497 52.0936C61.4987 52.023 61.2486 51.9494 60.9993 51.8727C60.7501 51.7958 60.5019 51.7159 60.2548 51.633C60.0077 51.5501 59.7614 51.464 59.516 51.3748C59.271 51.286 59.0271 51.194 58.7846 51.0989C58.5416 51.0037 58.2998 50.9057 58.0594 50.8045C57.8189 50.7035 57.5798 50.5996 57.3421 50.4929C57.1044 50.3859 56.868 50.2759 56.6327 50.163C56.3978 50.0504 56.1641 49.9347 55.9317 49.8162C55.6996 49.6972 55.469 49.5757 55.2396 49.4515C52.1763 47.7895 49.345 45.7214 46.5578 43.6417C45.8043 43.0798 44.7583 42.4361 44.1666 41.7116C46.3189 42.5594 48.4124 43.6931 50.4996 44.6931C56.7976 47.7108 63.0341 50.2983 70.0876 50.7285C78.3277 51.2316 85.2967 48.0104 91.3508 42.6806Z" fill="#15507E"/>
<path d="M128.401 79.6944H125.389V70.2898H123.671V68.1268H125.389C125.389 65.3051 127.013 63.8944 130.307 63.8944V66.3631C128.754 66.3631 128.401 66.7862 128.401 68.1268H130.378V70.2898H128.401V79.6944Z" fill="#0856B4"/>
<path d="M141.554 79.6944H138.659V78.072C137.859 79.3888 136.659 80 135.059 80C132.753 80 131.129 78.2839 131.129 75.7446V68.1268H134.188V75.274C134.188 76.7321 134.847 77.437 136.141 77.437C137.694 77.437 138.518 76.3321 138.518 74.804V68.1268H141.554V79.6944Z" fill="#0856B4"/>
<path d="M145.954 79.6944H142.895V63.8944H145.954V79.6944Z" fill="#0856B4"/>
<path d="M151.451 79.6944H148.438V70.2898H146.721V68.1268H148.438C148.438 65.3051 150.062 63.8944 153.357 63.8944V66.3631C151.804 66.3631 151.451 66.7862 151.451 68.1268H153.428V70.2898H151.451V79.6944Z" fill="#0856B4"/>
<path d="M157.308 79.6944H154.249V68.1268H157.308V79.6944ZM157.308 66.7393H154.249V63.8944H157.308V66.7393Z" fill="#0856B4"/>
<path d="M161.765 79.6944H158.706V63.8944H161.765V79.6944Z" fill="#0856B4"/>
<path d="M166.108 79.6944H163.049V63.8944H166.108V79.6944Z" fill="#0856B4"/>
<path d="M183.959 79.6944H180.971V72.6878C180.971 71.3003 180.241 70.3129 179.159 70.3129C178.029 70.3129 177.205 71.3709 177.205 72.7822V79.6944H174.146V72.7346C174.146 70.8772 173.652 70.4072 172.311 70.4072C171.087 70.4072 170.451 71.1597 170.451 72.664V79.6944H167.393V68.1267H170.263V69.8191C171.04 68.2911 172.122 67.8211 173.652 67.8211C175.229 67.8211 175.982 68.3148 176.876 69.6548C177.511 68.3855 178.547 67.8211 180.006 67.8211C182.336 67.8211 183.959 69.5135 183.959 71.6766V79.6944Z" fill="#0856B4"/>
<path d="M188.028 72.7822H192.758C192.711 71.0653 191.581 70.2429 190.381 70.2429C189.157 70.2429 188.145 71.1828 188.028 72.7822ZM195.911 74.7096H187.934C188.028 76.4495 189.016 77.5782 190.522 77.5782C191.511 77.5782 192.381 77.0845 192.593 76.2851H195.747C195.04 78.66 193.134 80 190.664 80C186.804 80 184.874 77.8838 184.874 73.699C184.874 70.1247 186.922 67.8211 190.475 67.8211C194.029 67.8211 195.911 70.1247 195.911 74.7096Z" fill="#0856B4"/>
<path d="M207.464 79.6944H204.381V72.6878C204.381 70.901 203.863 70.4072 202.404 70.4072C200.804 70.4072 200.027 71.3003 200.027 73.064V79.6944H196.969V68.1267H199.887V69.8191C200.592 68.5261 201.769 67.8211 203.628 67.8211C205.84 67.8211 207.464 69.161 207.464 71.6766V79.6944Z" fill="#0856B4"/>
<path d="M215.369 75.0858V72.0765H218.216V75.3683C218.216 77.8132 216.804 80 213.534 80C210.145 80 208.803 77.8369 208.803 75.3445V64.9995H211.816V68.1267H218.216V70.2897H211.816V75.0389C211.816 76.497 212.333 77.3432 213.58 77.3432C214.804 77.3432 215.369 76.5201 215.369 75.0858Z" fill="#0856B4"/>
<path d="M313.637 0.0884349C313.701 0.08193 313.765 0.0721722 313.829 0.0681069C319.666 -0.37017 326.857 1.29999 331.293 5.277C333.405 7.16917 335.808 10.2525 335.889 13.2115C335.922 14.4329 335.315 15.7395 334.457 16.5933C333.448 17.5968 331.696 18.4928 330.248 18.466C326.978 18.4066 325.601 14.2158 323.561 12.2708C321.27 10.0883 317.634 9.67445 314.606 9.82158C312.039 9.94521 308.68 10.5599 306.909 12.5854C305.942 13.6905 305.459 15.4574 305.599 16.9081C306.207 23.1683 320.338 24.6133 325.28 25.9947C328.43 26.8754 331.672 28.0243 334.225 30.1376C337.393 32.76 338.726 36.5849 339.073 40.588C339.417 44.552 338.294 48.329 335.704 51.3774C331.444 56.3912 324.53 58.1923 318.24 58.7257C312.04 58.9094 305.421 57.8776 300.358 54.0347C298.032 52.2678 295.351 49.0405 295.026 46.0409C294.889 44.7764 295.268 43.3762 296.093 42.3964C297.422 41.0424 298.933 40.3733 300.738 40.3026C305.226 40.1253 305.095 44.1487 307.701 46.4174C310.398 48.7632 314.938 49.4601 318.387 49.2446C321.098 49.0754 324.301 48.3014 326.117 46.1278C326.186 46.0438 326.253 45.9581 326.319 45.8709C326.384 45.7831 326.447 45.6942 326.508 45.6042C326.568 45.5137 326.627 45.4218 326.683 45.3286C326.74 45.2353 326.794 45.1407 326.846 45.0447C326.897 44.9488 326.947 44.8517 326.994 44.7537C327.042 44.6555 327.086 44.5564 327.129 44.456C327.172 44.3558 327.211 44.2544 327.249 44.1519C327.287 44.0495 327.321 43.9465 327.354 43.843C327.386 43.7389 327.417 43.634 327.444 43.5283C327.472 43.4231 327.497 43.3172 327.519 43.2104C327.542 43.1036 327.561 42.9965 327.579 42.8892C327.596 42.7818 327.61 42.6739 327.622 42.5655C327.635 42.4571 327.645 42.3487 327.651 42.2403C327.658 42.1313 327.663 42.0224 327.664 41.9134C327.666 41.8044 327.665 41.6955 327.661 41.5865C327.657 41.4776 327.651 41.3688 327.642 41.2605C327.15 35.6995 319.716 34.4432 315.348 33.5186C312.998 33.021 310.629 32.5616 308.309 31.9371C305.266 31.1191 302.175 29.9766 299.741 27.917C296.652 25.3028 295.291 21.555 294.974 17.6024C294.656 13.6156 295.668 9.83379 298.299 6.7699C302.119 2.31966 307.972 0.539723 313.637 0.0884349Z" fill="#0856B4"/>
<path d="M351.768 32.5837H368.323C368.158 26.5766 364.205 23.6965 360.005 23.6965C355.722 23.6965 352.181 26.9881 351.768 32.5837ZM379.359 39.3314H351.439C351.768 45.4208 355.228 49.3706 360.499 49.3706C363.958 49.3706 367.005 47.6426 367.747 44.8448H378.783C376.312 53.1559 369.641 57.8463 360.993 57.8463C347.486 57.8463 340.733 50.4404 340.733 35.793C340.733 23.2851 347.898 15.2208 360.334 15.2208C372.771 15.2208 379.359 23.2851 379.359 39.3314Z" fill="#0856B4"/>
<path d="M393.766 56.7766H383.059V1.47855H393.766V56.7766Z" fill="#0856B4"/>
<path d="M408.968 56.7766H398.261V1.47855H408.968V56.7766Z" fill="#0856B4"/>
<path d="M189.171 56.7766H178.464V1.47855H189.171V56.7766Z" fill="#FDC000"/>
<path d="M251.647 56.7766H241.188V32.2546C241.188 27.3995 238.634 23.9434 234.846 23.9434C230.892 23.9434 228.01 27.6464 228.01 32.5837V56.7766H217.303V32.4191C217.303 25.9184 215.574 24.2725 210.879 24.2725C206.596 24.2725 204.372 26.9058 204.372 32.1723V56.7766H193.666V16.2906H203.714V22.2153C206.432 16.8665 210.22 15.2208 215.574 15.2208C221.092 15.2208 223.727 16.9488 226.857 21.6393C229.081 17.1957 232.705 15.2208 237.811 15.2208C245.964 15.2208 251.647 21.1455 251.647 28.7161V56.7766Z" fill="#FDC000"/>
<path d="M280.301 41.3886L280.383 36.945C279.312 38.0148 277.418 38.5908 273.465 39.3314C267.37 40.4834 265.394 42.2115 265.394 45.6677C265.394 48.7123 267.206 50.1935 270.582 50.1935C276.1 50.1935 280.218 46.1614 280.301 41.3886ZM291.09 56.7766H281.125C280.795 55.7892 280.548 54.3902 280.465 53.1559C277.913 55.9537 273.63 57.8463 268.194 57.8463C258.969 57.8463 254.687 53.3205 254.687 46.7374C254.687 35.0524 262.511 33.7358 273.3 32.2546C278.654 31.5139 280.136 30.4442 280.136 27.6464C280.136 25.0131 277.5 23.4496 273.3 23.4496C268.441 23.4496 266.464 25.836 265.97 29.4568H256.005C256.17 21.0633 260.782 15.2208 273.794 15.2208C286.643 15.2208 291.09 20.981 291.09 31.1848V56.7766Z" fill="#FDC000"/>
<path d="M156.533 35.9596L149.697 14.2355H149.614L142.614 35.9596H156.533ZM175.723 56.6141H163.286L159.827 45.3406H139.649L135.778 56.6141H123.671C130.25 38.1997 138.396 15.5514 140.229 10.2657C142.061 4.9801 145.032 2.51336 149.711 2.41874C154.391 2.32413 157.117 5.08003 159.375 10.2657C161.633 15.4515 175.723 56.6141 175.723 56.6141Z" fill="#FDC000"/>
</g>
<defs>
<clipPath id="clip0_6_39">
<rect width="409" height="80" fill="white"/>
</clipPath>
</defs>
</svg>
